<svg width="21" height="22" viewBox="0 0 21 22" fill="none" xmlns="http://www.w3.org/2000/svg">
<path d="M15.3155 0.253418H5.68451C2.55002 0.253418 0 2.80344 0 5.93793V15.5691C0 18.7034 2.55002 21.2534 5.68451 21.2534H15.3157C18.45 21.2534 21 18.7034 21 15.5691V5.93793C21 2.80344 18.45 0.253418 15.3155 0.253418V0.253418ZM19.7689 15.5691C19.7689 18.0246 17.7711 20.0223 15.3155 20.0223H5.68451C3.22886 20.0223 1.23111 18.0246 1.23111 15.5691V5.93793C1.23111 3.48228 3.22886 1.48453 5.68451 1.48453H15.3157C17.7711 1.48453 19.7689 3.48228 19.7689 5.93793V15.5691Z" fill="white"/>
<path d="M10.5 5.01123C7.33375 5.01123 4.75793 7.58704 4.75793 10.7533C4.75793 13.9195 7.33375 16.4953 10.5 16.4953C13.6662 16.4953 16.242 13.9195 16.242 10.7533C16.242 7.58704 13.6662 5.01123 10.5 5.01123ZM10.5 15.2642C8.01275 15.2642 5.98904 13.2406 5.98904 10.7533C5.98904 8.26604 8.01275 6.24234 10.5 6.24234C12.9873 6.24234 15.0109 8.26604 15.0109 10.7533C15.0109 13.2406 12.9873 15.2642 10.5 15.2642Z" fill="white"/>
<path d="M16.3793 2.97217C15.4436 2.97217 14.6826 3.73336 14.6826 4.66887C14.6826 5.60454 15.4436 6.36573 16.3793 6.36573C17.315 6.36573 18.0762 5.60454 18.0762 4.66887C18.0762 3.7332 17.315 2.97217 16.3793 2.97217ZM16.3793 5.13446C16.1227 5.13446 15.9137 4.92554 15.9137 4.66887C15.9137 4.41204 16.1227 4.20328 16.3793 4.20328C16.6361 4.20328 16.8451 4.41204 16.8451 4.66887C16.8451 4.92554 16.6361 5.13446 16.3793 5.13446Z" fill="white"/>
</svg>
