<svg width="13" height="22" viewBox="0 0 13 22" fill="none" xmlns="http://www.w3.org/2000/svg">
<path d="M7.91773 21.2535H4.54819C3.98536 21.2535 3.52753 20.7957 3.52753 20.2328V12.6327H1.56167C0.998849 12.6327 0.541016 12.1747 0.541016 11.612V8.35533C0.541016 7.79251 0.998849 7.33467 1.56167 7.33467H3.52753V5.70384C3.52753 4.08681 4.03529 2.71106 4.99575 1.72557C5.96054 0.735572 7.30883 0.212402 8.89488 0.212402L11.4647 0.216576C12.0265 0.217539 12.4835 0.675373 12.4835 1.23723V4.26099C12.4835 4.82381 12.0259 5.28164 11.4632 5.28164L9.73301 5.28229C9.20535 5.28229 9.07098 5.38808 9.04225 5.4205C8.99489 5.47428 8.93854 5.6263 8.93854 6.04609V7.33451H11.3332C11.5135 7.33451 11.6881 7.37898 11.8382 7.46278C12.162 7.6437 12.3633 7.98579 12.3633 8.35549L12.362 11.6122C12.362 12.1747 11.9042 12.6325 11.3414 12.6325H8.93854V20.2328C8.93854 20.7957 8.48055 21.2535 7.91773 21.2535ZM4.76105 20.02H7.70486V12.0804C7.70486 11.7046 8.01068 11.399 8.38632 11.399H11.1285L11.1296 8.56819H8.38616C8.01051 8.56819 7.70486 8.26254 7.70486 7.88674V6.04609C7.70486 5.56418 7.75383 5.01613 8.11759 4.6042C8.55712 4.10624 9.24981 4.04877 9.73269 4.04877L11.25 4.04813V1.44977L8.89392 1.44592C6.34501 1.44592 4.76105 3.07756 4.76105 5.70384V7.88674C4.76105 8.26238 4.4554 8.56819 4.07976 8.56819H1.77453V11.399H4.07976C4.4554 11.399 4.76105 11.7046 4.76105 12.0804V20.02ZM11.4622 1.45009H11.4624H11.4622Z" fill="white"/>
</svg>
